# xmcd
#
# Track frame offsets:
#	225
#	35766
#	65875
#	94760
#	117573
#	142608
#	171017
#	195204
#	227758
# Disc length: 3443 seconds
# Revision: 1
# Processed by: cddbd v1.5.2PL0 Copyright (c) Steve Scherf et al.
#
# Submitted via: libkcddb 0.31
#
DISCID=770d7009
DTITLE=Greg Floor Quintet - The Grand Inquisitor
DYEAR=1992
DGENRE=Jazz
TTITLE0=The Grand Inquisitor
TTITLE1=Lila
TTITLE2=The Maá Grasshopper
TTITLE3=Inky's Samba
TTITLE4=Anthony's Song
TTITLE5=St. Isaac the Syrian
TTITLE6=Kalamata Blues
TTITLE7=When Heather Smiles
TTITLE8=That's Greek to Me
EXTD=YEAR: 1997
EXTT0=
EXTT1=
EXTT2=
EXTT3=
EXTT4=
EXTT5=
EXTT6=
EXTT7=
EXTT8=
PLAYORDER=
